<?xml version="1.0" standalone="no"?>
<!DOCTYPE svg PUBLIC "-//W3C//DTD SVG 20010904//EN"
 "http://www.w3.org/TR/2001/REC-SVG-20010904/DTD/svg10.dtd">
<svg version="1.0" xmlns="http://www.w3.org/2000/svg"
 width="600.000000pt" height="600.000000pt" viewBox="0 0 600.000000 600.000000"
 preserveAspectRatio="xMidYMid meet">
<metadata>
Created by potrace 1.11, written by Peter Selinger 2001-2013
</metadata>
<g transform="translate(0.000000,600.000000) scale(0.100000,-0.100000)"
fill="#000000" stroke="none">
<path d="M2715 5489 c-319 -40 -639 -151 -910 -317 -397 -241 -723 -612 -902
-1027 -24 -55 -49 -111 -54 -125 l-11 -25 -11 25 c-5 14 -11 43 -14 65 -2 22
-5 51 -7 65 -3 14 -5 41 -5 61 -1 22 -10 46 -23 61 -13 14 -45 51 -73 81 -27
31 -55 56 -61 57 -17 0 -45 35 -37 45 5 4 2 5 -5 1 -7 -4 -15 -1 -18 8 -3 8
-12 12 -20 9 -8 -3 -15 0 -15 6 -1 6 -2 16 -3 22 -1 12 -147 16 -166 4 -18
-11 -54 -17 -103 -19 -50 -1 -47 1 -108 -73 -5 -7 -7 -13 -4 -13 3 0 -2 -11
-11 -25 -13 -21 -15 -45 -11 -157 6 -145 10 -183 22 -211 8 -18 1 -232 -9
-276 -3 -12 -11 -30 -17 -38 -15 -17 -18 -302 -6 -468 5 -60 9 -118 10 -127 1
-10 4 -18 7 -18 4 0 7 -6 8 -12 1 -7 4 -31 8 -53 4 -22 8 -96 10 -164 3 -92
11 -152 30 -229 14 -57 28 -112 29 -121 2 -9 4 -18 6 -21 1 -3 3 -9 4 -15 1
-5 7 -22 13 -36 6 -15 13 -40 15 -55 8 -50 19 -73 32 -68 6 3 11 17 9 32 -1
14 1 31 6 37 4 5 9 15 10 20 0 6 3 19 5 30 7 27 13 67 14 83 1 17 41 -4 41
-21 0 -18 24 -67 33 -67 4 0 7 -6 7 -14 0 -7 7 -19 15 -26 8 -7 13 -16 10 -20
-3 -5 -1 -11 5 -15 6 -4 8 -11 5 -16 -4 -5 -2 -9 4 -9 11 0 38 -47 45 -77 9
-41 19 -62 26 -58 7 4 18 -16 24 -45 1 -2 13 -17 29 -33 15 -15 25 -31 23 -35
-3 -5 9 -17 25 -27 16 -11 29 -25 29 -31 0 -7 7 -14 15 -18 8 -3 15 -11 15
-19 0 -7 20 -34 45 -59 25 -26 45 -50 45 -53 0 -4 7 -13 15 -22 8 -8 12 -19 9
-25 -4 -7 -2 -8 4 -4 7 4 12 3 12 -1 0 -17 65 -78 103 -98 20 -11 37 -23 37
-28 0 -4 4 -6 9 -2 5 3 16 -1 24 -9 8 -8 17 -13 20 -10 3 3 13 1 24 -4 10 -5
41 -20 68 -33 57 -27 77 -43 67 -54 -4 -5 -2 -5 4 -2 6 4 27 -8 45 -26 19 -18
47 -40 62 -50 15 -10 25 -23 21 -29 -4 -6 -3 -8 4 -4 6 3 13 2 17 -4 3 -5 14
-10 24 -10 10 0 37 -20 61 -44 24 -25 48 -42 54 -39 5 4 7 -1 3 -10 -4 -11 -2
-14 9 -10 7 3 14 1 14 -4 0 -6 8 -20 18 -32 9 -11 31 -39 47 -60 17 -22 41
-45 55 -53 23 -12 35 -21 90 -70 10 -9 21 -14 24 -11 3 4 6 -1 6 -9 0 -16 81
-70 110 -74 8 -2 30 -20 49 -41 19 -21 31 -31 26 -23 -4 8 9 -2 28 -23 20 -20
41 -37 46 -37 6 0 20 -9 30 -19 11 -11 42 -35 70 -54 28 -18 48 -37 43 -42 -4
-5 -2 -5 5 -1 7 4 21 -2 32 -13 11 -11 22 -17 25 -14 3 4 6 0 6 -8 0 -8 9 -21
19 -29 11 -7 18 -17 15 -22 -3 -5 -1 -7 4 -6 10 3 49 -23 96 -65 17 -15 39
-30 48 -33 10 -3 18 -10 18 -15 0 -5 5 -9 11 -9 13 0 75 -45 115 -85 17 -16
49 -45 72 -64 23 -19 40 -38 39 -44 -1 -5 5 -11 13 -13 8 -1 25 -5 37 -8 28
-6 39 10 21 31 -11 14 -11 16 2 8 12 -7 13 -6 3 7 -7 8 -9 19 -5 23 4 5 2 5
-5 2 -16 -10 -110 133 -96 147 3 3 1 6 -6 6 -7 0 -9 5 -6 10 3 6 1 10 -4 10
-6 0 -11 9 -11 21 0 11 -9 42 -21 68 -11 27 -21 55 -22 62 -2 8 -6 19 -9 25
-9 14 -20 63 -22 96 0 14 -4 24 -8 21 -5 -2 -8 13 -8 34 l0 39 108 -20 c89
-16 153 -20 377 -20 266 -1 351 6 507 43 32 8 38 6 43 -10 10 -29 -10 -127
-42 -209 -4 -8 -7 -17 -7 -20 -1 -4 -10 -27 -44 -120 -3 -8 -4 -18 -4 -22 1
-5 -3 -8 -10 -8 -6 0 -9 -3 -5 -6 12 -13 -78 -158 -93 -149 -4 2 -7 -1 -8 -8
0 -7 -3 -23 -6 -37 -5 -22 -2 -26 20 -25 24 2 96 56 147 112 11 12 25 20 30
16 6 -3 7 -1 4 4 -4 6 2 18 13 28 11 10 20 14 20 10 0 -5 7 0 16 11 8 10 12
12 8 4 -4 -9 1 -7 14 5 40 38 105 81 111 74 2 -2 8 6 12 19 5 13 13 20 19 17
5 -3 10 -1 10 5 0 6 5 8 10 5 6 -4 9 -1 8 7 -2 7 3 12 10 11 6 -2 12 2 12 8 0
5 5 7 10 4 6 -4 9 -3 8 2 -2 5 9 21 24 35 15 14 24 29 20 33 -4 5 0 6 9 3 10
-4 23 3 34 18 10 14 24 23 32 20 7 -3 12 -2 10 2 -1 4 3 9 8 11 11 6 28 19 53
42 9 9 30 25 47 35 16 10 55 43 87 73 32 30 63 56 70 57 33 5 44 10 56 26 7 9
19 15 26 12 8 -3 17 0 22 7 5 8 3 10 -7 4 -8 -4 0 7 18 24 18 17 36 31 40 31
5 0 17 11 27 25 10 14 24 25 30 25 7 0 27 15 46 34 45 45 62 66 54 66 -4 0 14
20 39 45 26 25 52 45 58 45 5 0 8 4 5 9 -3 5 11 21 31 37 20 15 33 21 28 13
-5 -8 1 -6 13 4 12 11 26 16 34 11 7 -4 10 -3 5 1 -8 9 20 45 36 45 5 0 20 11
33 25 13 14 26 25 30 25 3 0 15 11 26 25 11 14 24 23 29 20 5 -4 9 -2 9 4 0
13 78 54 89 46 5 -2 14 2 21 10 7 8 16 13 20 10 5 -3 11 -1 15 5 4 6 11 8 16
5 5 -4 9 -1 9 4 0 6 6 11 14 11 7 0 19 7 26 15 7 8 16 12 21 9 5 -3 9 0 9 7 0
7 2 10 5 7 7 -6 103 85 99 93 -5 9 38 64 83 108 21 21 37 44 35 50 -2 6 1 11
6 11 6 0 14 9 17 20 4 11 9 19 13 17 9 -4 46 36 50 54 2 7 12 20 23 30 10 9
19 21 19 28 0 6 4 11 9 11 5 0 11 10 13 23 2 12 9 21 16 20 6 -2 11 0 11 5 -1
4 0 10 1 15 1 4 3 10 5 15 15 54 21 71 41 101 13 20 28 42 34 48 6 7 8 13 5
13 -3 0 6 17 20 37 14 21 25 44 25 51 0 16 29 47 36 39 3 -3 7 -20 9 -39 2
-18 8 -47 14 -65 5 -17 6 -35 3 -39 -4 -4 -1 -4 6 1 10 5 13 1 12 -16 -4 -46
0 -59 15 -53 8 4 13 9 11 13 -2 3 1 17 7 31 5 14 9 32 8 42 -1 9 3 19 8 22 6
4 8 13 4 21 -3 8 0 15 7 15 6 0 8 4 5 10 -3 6 -3 16 2 23 4 6 8 17 9 22 1 6
12 51 23 100 12 50 24 101 27 115 3 14 5 74 5 133 -1 59 1 113 5 119 4 6 9 29
11 52 2 23 6 48 10 56 11 26 13 43 20 145 12 168 9 451 -5 468 -7 8 -15 26
-18 38 -10 44 -17 258 -9 276 11 25 14 52 20 173 3 58 7 120 8 138 2 17 -1 32
-5 32 -4 0 -8 9 -8 20 0 11 -4 20 -10 20 -5 0 -10 6 -10 13 0 7 -13 29 -30 48
-27 34 -33 36 -80 34 -27 -1 -50 2 -50 7 0 5 -5 6 -10 3 -6 -4 -16 -2 -23 3
-7 6 -47 12 -89 14 -71 3 -78 1 -89 -19 -7 -12 -15 -22 -18 -21 -3 0 -9 -1
-13 -2 -5 -1 -14 -3 -20 -4 -7 0 -13 -8 -13 -16 -1 -8 -7 -14 -14 -12 -7 1
-10 -2 -6 -8 3 -5 -1 -13 -10 -16 -21 -8 -115 -100 -115 -112 0 -5 -8 -16 -17
-23 -14 -12 -16 -12 -8 0 5 10 4 12 -4 7 -6 -4 -9 -11 -6 -16 3 -5 1 -11 -4
-14 -5 -3 -12 -50 -17 -103 -4 -54 -8 -100 -9 -103 -1 -3 -4 -12 -7 -20 -4 -8
-12 -36 -19 -62 -7 -27 -16 -48 -19 -48 -3 0 -21 44 -40 98 -105 291 -297 588
-532 822 -352 351 -819 581 -1308 644 -133 17 -463 20 -585 5z"/>
</g>
</svg>
